<svg width="16" height="16" viewBox="0 0 16 16" fill="none" xmlns="http://www.w3.org/2000/svg">
<path d="M15.3259 11.5776C15.183 11.4016 14.943 11.3365 14.7318 11.4123C14.1398 11.6245 13.4976 11.7333 12.8214 11.7333C9.58615 11.7333 6.95469 9.1008 6.95469 5.86667C6.95469 3.92 7.91575 2.10773 9.52535 1.0176C9.70775 0.893867 9.79522 0.670933 9.74615 0.456533C9.69709 0.242133 9.52109 0.08 9.30242 0.048C9.05282 0.0117333 8.80429 0 8.55469 0C4.14295 0 0.554688 3.58827 0.554688 8C0.554688 12.4117 4.14295 16 8.55469 16C11.3547 16 13.9019 14.5771 15.3664 12.1941C15.4848 12.0011 15.4678 11.7547 15.3259 11.5776Z" fill="#7E5AEB"/>
</svg>
