<svg width="20" height="20" viewBox="0 0 20 20" fill="none" xmlns="http://www.w3.org/2000/svg">
<g clip-path="url(#clip0)">
<path d="M10 2.88083C9.655 2.88083 9.375 2.60083 9.375 2.25583V0.625C9.375 0.28 9.655 0 10 0C10.345 0 10.625 0.28 10.625 0.625V2.25583C10.625 2.60083 10.345 2.88083 10 2.88083Z" fill="#926EFF"/>
<path d="M15.4759 5.1492C15.3159 5.1492 15.1559 5.08836 15.0342 4.96586C14.79 4.7217 14.79 4.32586 15.0342 4.0817L16.1875 2.92836C16.4317 2.6842 16.8275 2.6842 17.0717 2.92836C17.3159 3.17253 17.3159 3.56836 17.0717 3.81253L15.9184 4.96586C15.7959 5.08753 15.6359 5.1492 15.4759 5.1492V5.1492Z" fill="#926EFF"/>
<path d="M19.375 10.625H17.7441C17.3991 10.625 17.1191 10.345 17.1191 10C17.1191 9.655 17.3991 9.375 17.7441 9.375H19.375C19.72 9.375 20 9.655 20 10C20 10.345 19.72 10.625 19.375 10.625Z" fill="#926EFF"/>
<path d="M16.6292 17.2542C16.4692 17.2542 16.3092 17.1933 16.1875 17.0708L15.0342 15.9175C14.79 15.6733 14.79 15.2775 15.0342 15.0333C15.2784 14.7892 15.6742 14.7892 15.9184 15.0333L17.0717 16.1867C17.3159 16.4308 17.3159 16.8267 17.0717 17.0708C16.9492 17.1933 16.7892 17.2542 16.6292 17.2542Z" fill="#926EFF"/>
<path d="M3.3704 17.2542C3.2104 17.2542 3.0504 17.1933 2.92873 17.0708C2.68456 16.8267 2.68456 16.4308 2.92873 16.1867L4.08206 15.0333C4.32623 14.7892 4.72206 14.7892 4.96623 15.0333C5.21039 15.2775 5.21039 15.6733 4.96623 15.9175L3.8129 17.0708C3.6904 17.1933 3.5304 17.2542 3.3704 17.2542V17.2542Z" fill="#926EFF"/>
<path d="M2.25583 10.625H0.625C0.28 10.625 0 10.345 0 10C0 9.655 0.28 9.375 0.625 9.375H2.25583C2.60083 9.375 2.88083 9.655 2.88083 10C2.88083 10.345 2.60083 10.625 2.25583 10.625Z" fill="#926EFF"/>
<path d="M4.52373 5.1492C4.36373 5.1492 4.20373 5.08836 4.08206 4.96586L2.92873 3.81253C2.68456 3.56836 2.68456 3.17253 2.92873 2.92836C3.1729 2.6842 3.56873 2.6842 3.8129 2.92836L4.96623 4.0817C5.21039 4.32586 5.21039 4.7217 4.96623 4.96586C4.84289 5.08753 4.68373 5.1492 4.52373 5.1492V5.1492Z" fill="#926EFF"/>
<path d="M12.5 17.5V18.5417C12.5 19.3417 11.8417 20 11.0417 20H8.95833C8.25833 20 7.5 19.4667 7.5 18.3V17.5H12.5Z" fill="#926EFF"/>
<path d="M13.6749 5.4667C12.3083 4.35837 10.5083 3.92504 8.74993 4.30004C6.5416 4.75837 4.74993 6.55837 4.2916 8.7667C3.82493 11.0334 4.67493 13.2834 6.4916 14.6584C6.98326 15.025 7.32493 15.5917 7.4416 16.25V16.2584C7.45827 16.25 7.48327 16.25 7.49993 16.25H12.4999C12.5166 16.25 12.5249 16.25 12.5416 16.2584V16.25C12.6583 15.6167 13.0333 15.0334 13.6083 14.5834C15.0166 13.4667 15.8333 11.8 15.8333 10C15.8333 8.23337 15.0499 6.58337 13.6749 5.4667ZM13.1249 10.4167C12.7833 10.4167 12.4999 10.1334 12.4999 9.7917C12.4999 8.52504 11.4749 7.50004 10.2083 7.50004C9.8666 7.50004 9.58327 7.2167 9.58327 6.87504C9.58327 6.53337 9.8666 6.25004 10.2083 6.25004C12.1583 6.25004 13.7499 7.8417 13.7499 9.7917C13.7499 10.1334 13.4666 10.4167 13.1249 10.4167Z" fill="#926EFF"/>
<path d="M7.44141 16.25H7.49974C7.48307 16.25 7.45807 16.25 7.44141 16.2583V16.25Z" fill="#926EFF"/>
<path d="M12.5417 16.25V16.2583C12.525 16.25 12.5167 16.25 12.5 16.25H12.5417Z" fill="#926EFF"/>
</g>
<defs>
<clipPath id="clip0">
<rect width="20" height="20" fill="white"/>
</clipPath>
</defs>
</svg>
